<mxfile host="app.diagrams.net" modified="2024-05-28T10:51:36.327Z" agent="Mozilla/5.0 (Windows NT 10.0; Win64; x64) AppleWebKit/537.36 (KHTML, like Gecko) Chrome/125.0.0.0 Safari/537.36" etag="cEIhs024imKwqeOQFuE9" version="24.4.9" type="device">
  <diagram name="Страница — 1" id="ijNz0HGGREqYV5jsXWVz">
    <mxGraphModel dx="989" dy="514" grid="1" gridSize="10" guides="1" tooltips="1" connect="1" arrows="1" fold="1" page="1" pageScale="1" pageWidth="827" pageHeight="1169" math="0" shadow="0">
      <root>
        <mxCell id="0" />
        <mxCell id="1" parent="0" />
        <mxCell id="5kxOQ9dNS5NebdjGrAoA-42" value="" style="rounded=0;whiteSpace=wrap;html=1;" vertex="1" parent="1">
          <mxGeometry x="550" y="305" width="140" height="190" as="geometry" />
        </mxCell>
        <mxCell id="5kxOQ9dNS5NebdjGrAoA-40" value="" style="rounded=0;whiteSpace=wrap;html=1;" vertex="1" parent="1">
          <mxGeometry x="260" y="150" width="140" height="470" as="geometry" />
        </mxCell>
        <mxCell id="5kxOQ9dNS5NebdjGrAoA-1" value="Пользователь" style="shape=umlActor;verticalLabelPosition=bottom;verticalAlign=top;html=1;outlineConnect=0;" vertex="1" parent="1">
          <mxGeometry x="160" y="370" width="30" height="60" as="geometry" />
        </mxCell>
        <mxCell id="5kxOQ9dNS5NebdjGrAoA-2" value="Администратор" style="shape=umlActor;verticalLabelPosition=bottom;verticalAlign=top;html=1;outlineConnect=0;" vertex="1" parent="1">
          <mxGeometry x="470" y="370" width="30" height="60" as="geometry" />
        </mxCell>
        <mxCell id="5kxOQ9dNS5NebdjGrAoA-3" value="Регистрация" style="ellipse;whiteSpace=wrap;html=1;" vertex="1" parent="1">
          <mxGeometry x="290" y="200" width="80" height="60" as="geometry" />
        </mxCell>
        <mxCell id="5kxOQ9dNS5NebdjGrAoA-4" value="Вход в систему" style="ellipse;whiteSpace=wrap;html=1;" vertex="1" parent="1">
          <mxGeometry x="290" y="270" width="80" height="60" as="geometry" />
        </mxCell>
        <mxCell id="5kxOQ9dNS5NebdjGrAoA-5" value="Выход из системы" style="ellipse;whiteSpace=wrap;html=1;" vertex="1" parent="1">
          <mxGeometry x="290" y="340" width="80" height="60" as="geometry" />
        </mxCell>
        <mxCell id="5kxOQ9dNS5NebdjGrAoA-6" value="Просмотр книг по жанрам" style="ellipse;whiteSpace=wrap;html=1;" vertex="1" parent="1">
          <mxGeometry x="290" y="410" width="80" height="60" as="geometry" />
        </mxCell>
        <mxCell id="5kxOQ9dNS5NebdjGrAoA-7" value="Чтение книги" style="ellipse;whiteSpace=wrap;html=1;" vertex="1" parent="1">
          <mxGeometry x="290" y="480" width="80" height="60" as="geometry" />
        </mxCell>
        <mxCell id="5kxOQ9dNS5NebdjGrAoA-19" value="Доступ к phpMyAdmin" style="ellipse;whiteSpace=wrap;html=1;" vertex="1" parent="1">
          <mxGeometry x="580" y="355" width="80" height="60" as="geometry" />
        </mxCell>
        <mxCell id="5kxOQ9dNS5NebdjGrAoA-20" value="Загрузка книг" style="ellipse;whiteSpace=wrap;html=1;" vertex="1" parent="1">
          <mxGeometry x="580" y="425" width="80" height="60" as="geometry" />
        </mxCell>
        <mxCell id="5kxOQ9dNS5NebdjGrAoA-23" value="Просмотр информации о книге" style="ellipse;whiteSpace=wrap;html=1;" vertex="1" parent="1">
          <mxGeometry x="290" y="550" width="80" height="60" as="geometry" />
        </mxCell>
        <mxCell id="5kxOQ9dNS5NebdjGrAoA-26" value="" style="endArrow=none;html=1;rounded=0;entryX=0;entryY=0.5;entryDx=0;entryDy=0;" edge="1" parent="1" source="5kxOQ9dNS5NebdjGrAoA-1" target="5kxOQ9dNS5NebdjGrAoA-3">
          <mxGeometry width="50" height="50" relative="1" as="geometry">
            <mxPoint x="220" y="380" as="sourcePoint" />
            <mxPoint x="270" y="330" as="targetPoint" />
          </mxGeometry>
        </mxCell>
        <mxCell id="5kxOQ9dNS5NebdjGrAoA-27" value="" style="endArrow=none;html=1;rounded=0;entryX=0;entryY=0.5;entryDx=0;entryDy=0;" edge="1" parent="1" source="5kxOQ9dNS5NebdjGrAoA-1" target="5kxOQ9dNS5NebdjGrAoA-4">
          <mxGeometry width="50" height="50" relative="1" as="geometry">
            <mxPoint x="80" y="560" as="sourcePoint" />
            <mxPoint x="180" y="412" as="targetPoint" />
          </mxGeometry>
        </mxCell>
        <mxCell id="5kxOQ9dNS5NebdjGrAoA-28" value="" style="endArrow=none;html=1;rounded=0;entryX=0;entryY=0.5;entryDx=0;entryDy=0;" edge="1" parent="1" source="5kxOQ9dNS5NebdjGrAoA-1" target="5kxOQ9dNS5NebdjGrAoA-5">
          <mxGeometry width="50" height="50" relative="1" as="geometry">
            <mxPoint x="110" y="570" as="sourcePoint" />
            <mxPoint x="210" y="422" as="targetPoint" />
          </mxGeometry>
        </mxCell>
        <mxCell id="5kxOQ9dNS5NebdjGrAoA-29" value="" style="endArrow=none;html=1;rounded=0;entryX=0;entryY=0.5;entryDx=0;entryDy=0;" edge="1" parent="1" source="5kxOQ9dNS5NebdjGrAoA-1" target="5kxOQ9dNS5NebdjGrAoA-6">
          <mxGeometry width="50" height="50" relative="1" as="geometry">
            <mxPoint x="130" y="510" as="sourcePoint" />
            <mxPoint x="230" y="362" as="targetPoint" />
          </mxGeometry>
        </mxCell>
        <mxCell id="5kxOQ9dNS5NebdjGrAoA-30" value="" style="endArrow=none;html=1;rounded=0;entryX=0;entryY=0.5;entryDx=0;entryDy=0;" edge="1" parent="1" source="5kxOQ9dNS5NebdjGrAoA-1" target="5kxOQ9dNS5NebdjGrAoA-7">
          <mxGeometry width="50" height="50" relative="1" as="geometry">
            <mxPoint x="60" y="540" as="sourcePoint" />
            <mxPoint x="160" y="392" as="targetPoint" />
          </mxGeometry>
        </mxCell>
        <mxCell id="5kxOQ9dNS5NebdjGrAoA-31" value="" style="endArrow=none;html=1;rounded=0;entryX=0;entryY=0.5;entryDx=0;entryDy=0;" edge="1" parent="1" source="5kxOQ9dNS5NebdjGrAoA-1" target="5kxOQ9dNS5NebdjGrAoA-23">
          <mxGeometry width="50" height="50" relative="1" as="geometry">
            <mxPoint x="80" y="590" as="sourcePoint" />
            <mxPoint x="180" y="442" as="targetPoint" />
          </mxGeometry>
        </mxCell>
        <mxCell id="5kxOQ9dNS5NebdjGrAoA-32" value="" style="endArrow=none;html=1;rounded=0;entryX=1;entryY=0.5;entryDx=0;entryDy=0;" edge="1" parent="1" source="5kxOQ9dNS5NebdjGrAoA-2" target="5kxOQ9dNS5NebdjGrAoA-3">
          <mxGeometry width="50" height="50" relative="1" as="geometry">
            <mxPoint x="450" y="550" as="sourcePoint" />
            <mxPoint x="550" y="402" as="targetPoint" />
          </mxGeometry>
        </mxCell>
        <mxCell id="5kxOQ9dNS5NebdjGrAoA-33" value="" style="endArrow=none;html=1;rounded=0;entryX=1;entryY=0.5;entryDx=0;entryDy=0;" edge="1" parent="1" source="5kxOQ9dNS5NebdjGrAoA-2" target="5kxOQ9dNS5NebdjGrAoA-4">
          <mxGeometry width="50" height="50" relative="1" as="geometry">
            <mxPoint x="520" y="550" as="sourcePoint" />
            <mxPoint x="620" y="402" as="targetPoint" />
          </mxGeometry>
        </mxCell>
        <mxCell id="5kxOQ9dNS5NebdjGrAoA-34" value="" style="endArrow=none;html=1;rounded=0;entryX=1;entryY=0.5;entryDx=0;entryDy=0;" edge="1" parent="1" source="5kxOQ9dNS5NebdjGrAoA-2" target="5kxOQ9dNS5NebdjGrAoA-5">
          <mxGeometry width="50" height="50" relative="1" as="geometry">
            <mxPoint x="530" y="570" as="sourcePoint" />
            <mxPoint x="630" y="422" as="targetPoint" />
          </mxGeometry>
        </mxCell>
        <mxCell id="5kxOQ9dNS5NebdjGrAoA-35" value="" style="endArrow=none;html=1;rounded=0;entryX=1;entryY=0.5;entryDx=0;entryDy=0;" edge="1" parent="1" source="5kxOQ9dNS5NebdjGrAoA-2" target="5kxOQ9dNS5NebdjGrAoA-6">
          <mxGeometry width="50" height="50" relative="1" as="geometry">
            <mxPoint x="540" y="550" as="sourcePoint" />
            <mxPoint x="640" y="402" as="targetPoint" />
          </mxGeometry>
        </mxCell>
        <mxCell id="5kxOQ9dNS5NebdjGrAoA-36" value="" style="endArrow=none;html=1;rounded=0;entryX=1;entryY=0.5;entryDx=0;entryDy=0;" edge="1" parent="1" source="5kxOQ9dNS5NebdjGrAoA-2" target="5kxOQ9dNS5NebdjGrAoA-7">
          <mxGeometry width="50" height="50" relative="1" as="geometry">
            <mxPoint x="550" y="570" as="sourcePoint" />
            <mxPoint x="650" y="422" as="targetPoint" />
          </mxGeometry>
        </mxCell>
        <mxCell id="5kxOQ9dNS5NebdjGrAoA-37" value="" style="endArrow=none;html=1;rounded=0;entryX=1;entryY=0.5;entryDx=0;entryDy=0;" edge="1" parent="1" source="5kxOQ9dNS5NebdjGrAoA-2" target="5kxOQ9dNS5NebdjGrAoA-23">
          <mxGeometry width="50" height="50" relative="1" as="geometry">
            <mxPoint x="560" y="570" as="sourcePoint" />
            <mxPoint x="660" y="422" as="targetPoint" />
          </mxGeometry>
        </mxCell>
        <mxCell id="5kxOQ9dNS5NebdjGrAoA-38" value="" style="endArrow=none;html=1;rounded=0;entryX=0;entryY=0.5;entryDx=0;entryDy=0;" edge="1" parent="1" source="5kxOQ9dNS5NebdjGrAoA-2" target="5kxOQ9dNS5NebdjGrAoA-19">
          <mxGeometry width="50" height="50" relative="1" as="geometry">
            <mxPoint x="500" y="580" as="sourcePoint" />
            <mxPoint x="600" y="432" as="targetPoint" />
          </mxGeometry>
        </mxCell>
        <mxCell id="5kxOQ9dNS5NebdjGrAoA-39" value="" style="endArrow=none;html=1;rounded=0;entryX=0;entryY=0.5;entryDx=0;entryDy=0;" edge="1" parent="1" source="5kxOQ9dNS5NebdjGrAoA-2" target="5kxOQ9dNS5NebdjGrAoA-20">
          <mxGeometry width="50" height="50" relative="1" as="geometry">
            <mxPoint x="510" y="600" as="sourcePoint" />
            <mxPoint x="610" y="452" as="targetPoint" />
          </mxGeometry>
        </mxCell>
        <mxCell id="5kxOQ9dNS5NebdjGrAoA-41" value="Онлайн- библиотека" style="text;html=1;align=center;verticalAlign=middle;whiteSpace=wrap;rounded=0;" vertex="1" parent="1">
          <mxGeometry x="300" y="160" width="60" height="30" as="geometry" />
        </mxCell>
        <mxCell id="5kxOQ9dNS5NebdjGrAoA-43" value="Дополнительные права" style="text;html=1;align=center;verticalAlign=middle;whiteSpace=wrap;rounded=0;" vertex="1" parent="1">
          <mxGeometry x="590" y="315" width="60" height="30" as="geometry" />
        </mxCell>
      </root>
    </mxGraphModel>
  </diagram>
</mxfile>
